<svg id="Layer_4" data-name="Layer 4" xmlns="http://www.w3.org/2000/svg" viewBox="0 0 61.07 61.07"><defs><style>.cls-1{fill:#f15c22;}</style></defs><title>instagram-brands-circle</title><path class="cls-1" d="M230.36,169.28a6.42,6.42,0,0,0-3.63-3.63c-2.5-1-8.47-.77-11.25-.77s-8.74-.23-11.25.77a6.42,6.42,0,0,0-3.63,3.63c-1,2.5-.77,8.47-.77,11.25s-.23,8.74.77,11.25a6.45,6.45,0,0,0,3.63,3.63c2.5,1,8.47.76,11.25.76s8.74.23,11.25-.76a6.42,6.42,0,0,0,3.63-3.63c1-2.5.77-8.48.77-11.25S231.36,171.79,230.36,169.28Zm-14.88,21a9.79,9.79,0,1,1,9.79-9.78A9.76,9.76,0,0,1,215.48,190.31Zm10.19-17.69a2.28,2.28,0,1,1,2.28-2.28A2.28,2.28,0,0,1,225.67,172.62Z" transform="translate(-184.94 -149.99)"/><path class="cls-1" d="M215.47,150A30.54,30.54,0,1,0,246,180.53,30.53,30.53,0,0,0,215.47,150Zm19,38.41c-.15,3.06-.85,5.76-3.08,8s-4.94,2.93-8,3.08-12.6.18-15.75,0-5.76-.85-8-3.08-2.94-4.94-3.08-8-.18-12.6,0-15.75.84-5.77,3.08-8,5-2.93,8-3.07,12.6-.18,15.75,0,5.77.85,8,3.08,2.94,4.94,3.08,8S234.61,185.25,234.43,188.4Z" transform="translate(-184.94 -149.99)"/><circle class="cls-1" cx="215.48" cy="180.53" r="6.36" transform="translate(-249.48 55.25) rotate(-45)"/></svg>