<svg id="Layer_4" data-name="Layer 4" xmlns="http://www.w3.org/2000/svg" viewBox="0 0 61.07 61.07"><defs><style>.cls-1{fill:#f15c22;}</style></defs><title>twitter-brands-circle</title><path class="cls-1" d="M331.61,51a30.54,30.54,0,1,0,30.54,30.54A30.53,30.53,0,0,0,331.61,51Zm17.14,24.34c0,.35,0,.69,0,1,0,10.46-8,22.5-22.5,22.5a22.28,22.28,0,0,1-12.15-3.55,15.08,15.08,0,0,0,1.91.1A15.84,15.84,0,0,0,325.86,92a7.91,7.91,0,0,1-7.39-5.48,10.22,10.22,0,0,0,1.49.12A8.41,8.41,0,0,0,322,86.4a7.91,7.91,0,0,1-6.34-7.76v-.1a7.82,7.82,0,0,0,3.57,1A7.93,7.93,0,0,1,316.82,69a22.48,22.48,0,0,0,16.31,8.27,9,9,0,0,1-.19-1.81A7.91,7.91,0,0,1,346.62,70a15.41,15.41,0,0,0,5-1.91,7.9,7.9,0,0,1-3.48,4.36,15.54,15.54,0,0,0,4.56-1.23A17,17,0,0,1,348.75,75.33Z" transform="translate(-301.08 -50.99)"/></svg>